<svg width="430" height="378" viewBox="0 0 430 378" fill="none" xmlns="http://www.w3.org/2000/svg">
<path opacity="0.3" d="M100.868 372.848L1.91 201.447C0.352998 198.75 0.352998 195.428 1.91 192.732L100.868 21.33C102.425 18.633 105.302 16.972 108.416 16.972H306.333C309.447 16.972 312.324 18.633 313.881 21.33L412.839 192.731C414.396 195.428 414.396 198.75 412.839 201.446L313.88 372.848C312.323 375.545 309.446 377.206 306.332 377.206H108.416C105.302 377.205 102.425 375.544 100.868 372.848Z" fill="#1F1E21"/>
<path d="M116.12 356.67L17.161 185.269C15.604 182.572 15.604 179.25 17.161 176.554L116.12 5.15201C117.677 2.45601 120.554 0.794006 123.668 0.794006H321.585C324.699 0.794006 327.576 2.45501 329.133 5.15201L428.091 176.553C429.648 179.25 429.648 182.572 428.091 185.268L329.132 356.67C327.575 359.367 324.698 361.028 321.584 361.028H123.667C120.554 361.027 117.676 359.366 116.12 356.67Z" fill="#F5F6F6"/>
<path d="M319.581 23.107L407.769 175.849C409.578 178.981 409.578 182.841 407.769 185.973L319.581 338.715C317.773 341.847 314.43 343.777 310.814 343.777H134.438C130.821 343.777 127.479 341.847 125.671 338.715L37.483 185.973C35.674 182.841 35.674 178.981 37.483 175.849L125.671 23.107C127.479 19.975 130.821 18.045 134.438 18.045H310.814C314.431 18.045 317.773 19.975 319.581 23.107Z" fill="#C41520"/>
<path opacity="0.5" d="M407.772 185.971L406.982 187.331L315.592 29.041C313.592 25.591 309.902 23.461 305.912 23.461H125.472L125.672 23.111C127.482 19.971 130.822 18.041 134.442 18.041H310.812C314.432 18.041 317.772 19.971 319.582 23.111L407.772 175.851C409.582 178.981 409.582 182.841 407.772 185.971Z" fill="white"/>
<path d="M132.774 171.189C132.49 168.324 131.271 166.099 129.116 164.513C126.962 162.927 124.038 162.134 120.345 162.134C117.836 162.134 115.717 162.489 113.989 163.199C112.26 163.885 110.935 164.844 110.011 166.075C109.112 167.306 108.662 168.703 108.662 170.266C108.615 171.568 108.887 172.704 109.479 173.675C110.094 174.645 110.935 175.486 112 176.196C113.065 176.883 114.296 177.486 115.693 178.007C117.09 178.504 118.581 178.93 120.168 179.286L126.702 180.848C129.874 181.558 132.786 182.505 135.438 183.689C138.089 184.873 140.385 186.329 142.327 188.057C144.268 189.785 145.771 191.821 146.837 194.165C147.926 196.509 148.482 199.196 148.506 202.226C148.482 206.677 147.346 210.536 145.097 213.803C142.871 217.046 139.652 219.567 135.438 221.366C131.247 223.142 126.193 224.03 120.274 224.03C114.403 224.03 109.289 223.13 104.933 221.331C100.601 219.532 97.2154 216.868 94.777 213.341C92.3622 209.79 91.0956 205.398 90.9773 200.166H105.857C106.022 202.605 106.721 204.641 107.952 206.274C109.206 207.884 110.875 209.103 112.959 209.932C115.066 210.737 117.445 211.139 120.097 211.139C122.701 211.139 124.962 210.76 126.879 210.003C128.821 209.245 130.324 208.192 131.389 206.842C132.455 205.493 132.987 203.942 132.987 202.19C132.987 200.557 132.502 199.184 131.531 198.071C130.584 196.958 129.188 196.011 127.341 195.23C125.518 194.449 123.281 193.739 120.629 193.099L112.71 191.111C106.579 189.619 101.737 187.287 98.1861 184.115C94.6349 180.943 92.8712 176.67 92.8949 171.295C92.8712 166.892 94.0431 163.045 96.4105 159.754C98.8016 156.464 102.08 153.895 106.247 152.048C110.414 150.202 115.149 149.278 120.452 149.278C125.849 149.278 130.561 150.202 134.585 152.048C138.634 153.895 141.782 156.464 144.031 159.754C146.28 163.045 147.44 166.857 147.511 171.189H132.774ZM156.078 162.95V150.273H215.809V162.95H193.543V223H178.344V162.95H156.078ZM289.157 186.636C289.157 194.567 287.654 201.314 284.647 206.878C281.664 212.441 277.592 216.691 272.431 219.626C267.294 222.538 261.518 223.994 255.102 223.994C248.639 223.994 242.839 222.527 237.701 219.591C232.564 216.655 228.504 212.406 225.521 206.842C222.538 201.279 221.047 194.544 221.047 186.636C221.047 178.705 222.538 171.958 225.521 166.395C228.504 160.831 232.564 156.594 237.701 153.682C242.839 150.746 248.639 149.278 255.102 149.278C261.518 149.278 267.294 150.746 272.431 153.682C277.592 156.594 281.664 160.831 284.647 166.395C287.654 171.958 289.157 178.705 289.157 186.636ZM273.568 186.636C273.568 181.499 272.798 177.167 271.26 173.639C269.744 170.112 267.602 167.437 264.832 165.614C262.062 163.791 258.819 162.879 255.102 162.879C251.385 162.879 248.142 163.791 245.372 165.614C242.602 167.437 240.448 170.112 238.909 173.639C237.394 177.167 236.636 181.499 236.636 186.636C236.636 191.774 237.394 196.106 238.909 199.634C240.448 203.161 242.602 205.836 245.372 207.659C248.142 209.482 251.385 210.393 255.102 210.393C258.819 210.393 262.062 209.482 264.832 207.659C267.602 205.836 269.744 203.161 271.26 199.634C272.798 196.106 273.568 191.774 273.568 186.636ZM300.548 223V150.273H329.241C334.757 150.273 339.456 151.326 343.339 153.433C347.221 155.517 350.181 158.417 352.217 162.134C354.276 165.827 355.306 170.088 355.306 174.918C355.306 179.747 354.264 184.009 352.181 187.702C350.098 191.395 347.079 194.271 343.126 196.331C339.196 198.391 334.437 199.42 328.85 199.42H310.562V187.098H326.364C329.324 187.098 331.762 186.589 333.68 185.571C335.621 184.529 337.065 183.097 338.012 181.274C338.983 179.428 339.468 177.309 339.468 174.918C339.468 172.503 338.983 170.396 338.012 168.597C337.065 166.774 335.621 165.365 333.68 164.371C331.738 163.353 329.276 162.844 326.293 162.844H315.924V223H300.548Z" fill="#F5F6F6"/>
</svg>
